<svg xmlns="http://www.w3.org/2000/svg" width="1281.094" height="1035.564" viewBox="0 0 1281.094 1035.564">
  <defs>
    <style>
      .cls-1 {
        fill: #fca92d;
        fill-rule: evenodd;
      }
    </style>
  </defs>
  <path id="べた塗り_1" data-name="べた塗り 1" class="cls-1" d="M1075,6c9.92-.412,15.74.483,21,4q-0.495,85.491-1,171c-7,2.838-17.22,2.4-23-1-0.33-3.333-.67-6.667-1-10-37,27.024-73.361,13.335-82-31-11.453-58.78,31.9-101.755,80-70C1068.54,50.384,1064.41,14.63,1075,6Zm77,8,17,1c7.06,5.117,7.43,13.448,5,23l-6,5c-8.29,2.589-16.88.209-22-3-2.49-8.8-2.09-17.253,2-24C1149.33,15.333,1150.67,14.667,1152,14ZM774,60c10.926-.351,24.465-0.93,31,3l1,2q-0.5,6.5-1,13l-3,5H774c-0.426,24.379-4.253,62.186,6,77,7.953,0.451,16.03-3.635,22-2,1.923,1.392.6,0.1,2,2,2.658,3.913,2.209,11.771,1,17-6.385,5.846-14.045,7.345-27,7-40.7-1.085-31.965-59.4-31-101l-15-1c-1.923-1.392-.6-0.1-2-2-3.414-5.008-1.668-13.76,0-19l2-1h15c-0.354-10.492-.733-22.812,3-29l2-1,17,1,4,2Q773.5,46.5,774,60ZM238,58c94.881-2.566,86.157,113.731,22,126-52.155,9.974-81.822-35.649-67-85C200.629,73.6,214.874,68.278,238,58Zm141,0c15.741-.263,55.36-1.368,67,4,2.293,8.05,1.819,13.77-2,20H432c11.828,51.243-17.016,65.179-65,57q-0.5,4-1,8c28.167,16.749,67.8-4.7,79,30,3.337,10.338.481,23.583-5,31-32.865,44.473-147.871,1.965-90-41-15.775-20.521-4.748-23.884,0-44-12.1-15.08-4.782-45.785,7-55Zm170,50c1.152-55.167-45.526-11-63-18-2.131-7.7-1.528-13.255,1-20,25.222-14.249,73.7-19.849,86,11,5.386,13.5,3,36.131,3,54v43c-4.859,12.22-21.241,4.142-25-4-25.613,16.522-82.043,12.525-72-34C485.014,112.142,513.763,106.935,549,108ZM652,58c16.818-.716,34.6.223,41,10,2.165,3.063,3.08,11.73,1,16l-2,4c-13.2-1.138-29.5-14.565-42-4-3.056,2.024-3.425,3.517-5,7,4.822,24.78,49.345,16.908,56,48,10.295,48.1-60.644,56.155-84,32-0.626-8.659-.5-13.061,3-19,12.421,0.761,47.06,21.948,54,1,6.658-20.1-29.59-23.886-39-30-17.533-11.391-21.57-43.277-3-57Zm610,0c94.88-2.566,86.16,113.731,22,126-52.16,9.974-81.82-35.649-67-85C1224.63,73.6,1238.87,68.278,1262,58ZM55,59l19,1c8.093,4.671,30.405,71.337,33,85q0.5-1,1-2l30-83h22l1,3c4.481,11.469-9.211,33.337-13,43L105,224c-5.145,1.439-15.877,3.7-22,1l-4-2c0.61-16.28,16.738-30.073,14-44C87.446,150.752,47.573,87.925,52,61Zm795,0c8.795-.347,16.011.15,21,3,4.492,28.156-9.222,86.352,13,97,16.446,5.452,26.864-7.942,35-17-0.891-23.56-10.994-96.288,22-82l5,3q-0.5,57.994-1,116c-1.392,1.923-.1.6-2,2-3.158,2.222-12.608,3.129-17,1l-5-3v-9c-24.13,17.957-64.013,19.615-74-14q-1-25.5-2-51,0.5-22,1-44Zm301,0c10.16-.418,16.59.387,22,4q-0.495,57.994-1,116c-1.39,1.923-.1.6-2,2-3.36,2.34-14.36,3.222-19,1-1.33-.667-2.67-1.333-4-2V64C1148.33,62.334,1149.67,60.667,1151,59ZM387,79l-7,2c-8.784,7.625-16.846,29.878-1,37,9.551,5.893,20.335.91,27-4a49.179,49.179,0,0,0,1-27C401.1,82.568,397.146,79.86,387,79ZM246,81c-7.79,3.158-15.419,3.867-20,10-16.274,21.788-8.584,74.81,25,70C289.588,155.473,290.526,81.5,246,81Zm793,0c-5.78,2.6-11.47,3.313-15,8-12.61,16.73-11.46,62.218,8,70,16.89,5.72,30.08-7.414,37-18V99C1059.31,91.473,1055.12,82.674,1039,81Zm231,0c-7.79,3.158-15.42,3.867-20,10-16.27,21.788-8.58,74.81,25,70C1313.59,155.473,1314.53,81.5,1270,81ZM549,129c-16.724-.735-35.772-0.059-41,11-2.721,4.975-1.5,9.753,0,15,16.157,12.213,28.731,2.812,41-7V129ZM374,174c-5.258,6.652-9.834,8.61-10,21,9.094,13.718,47.09,13.521,54-2,1.85-3.458,1.733-5.957,1-10C409.889,171.5,390.878,178.14,374,174ZM660,308c30.2,0.668,70.092,60.948,85,82,23.246,32.824,43.834,68.857,57,112,33.129,108.562-19.625,204.268-65,266-12.919,17.577-47.471,66.166-69,71-16.47,3.7-26.961-12.96-34-20a467.677,467.677,0,0,1-69-88c-20.1-32.8-36.709-69.046-46-113C493.548,497.6,593.371,344.776,660,308ZM468,345c25.11,0.86,53.086,17.876,71,29v1c-15.525,18.126-26.152,42.556-37,65-21.6-9.112-52.242-10.35-74-22C437.079,389.837,443.077,357.883,468,345Zm386,0c28.058,1.719,41.226,48.737,45,74-26.047,3.314-52.331,11.782-74,21-6.215-20.453-22.343-51.414-37-65q0.5-1,1-2C805.628,367.911,837.093,353.736,854,345ZM303,451c47.831-.679,90.566,2.3,129,12l54,16v3c-42.381,110.132,10.6,231.722,58,299l44,54c-149.9-11.491-240.631-95.1-283-216-6.695-19.1-30.856-130.532-18-156C290.142,456.775,296.849,454.421,303,451Zm679,0c18.38-.44,46.78-3.278,55,7,8.97,11.214,4.51,40.658,4,58-1.44,48.929-13.68,94.773-29,132C968.627,753.415,874.3,822.427,739,835l6-6c10.943-22.872,38.525-46.874,53-70,41.652-66.546,80.344-177.889,43-278l3-2c26.974-15.532,68.384-18.847,103-25ZM335,764c11.494,3.656,46.64,41.307,62,51,56.984,35.962,133.716,63.3,222,66q-0.5,1-1,2c-28.159,10.082-52.075,28.6-85,37-79.611,20.307-149.466-16.388-194-48-12.03-8.54-58.9-38.412-54-59C290.3,790.722,321.512,779.574,335,764Zm655,0c15.72,6.278,52.05,36.329,52,58-22.38,47.667-147.7,117.932-232,101-41.7-8.375-68.919-27.625-102-41v-1C816.836,880.22,943.167,826.9,990,764ZM662,904l51,31,33,15c-10.6,22.3-53.394,84.75-76,91-25.628,7.08-82.778-72.934-89-92C607.659,942.214,645.27,922.481,662,904Z" transform="translate(-51.656 -5.906)"/>
</svg>
